<mxfile host="app.diagrams.net" modified="2023-10-27T12:28:46.071Z" agent="Mozilla/5.0 (Macintosh; Intel Mac OS X 10_15_7) AppleWebKit/605.1.15 (KHTML, like Gecko) Version/17.0.1 Safari/605.1.15" version="22.0.8" etag="SUqf-E1mGsmT_6zxsC4M" type="github">
  <diagram name="Page-1" id="Bm3REpQPp8TtPt_DJ47i">
    <mxGraphModel>
      <root>
        <mxCell id="0" />
        <mxCell id="1" parent="0" />
      </root>
    </mxGraphModel>
  </diagram>
</mxfile>
